<mxfile host="app.diagrams.net" modified="2023-11-01T03:47:57.990Z" agent="Mozilla/5.0 (Windows NT 10.0; Win64; x64) AppleWebKit/537.36 (KHTML, like Gecko) Chrome/118.0.0.0 Safari/537.36" etag="MN7ynAsT6xe1MvRYuizi" version="22.0.8" type="github">
  <diagram name="Page-1" id="c4acf3e9-155e-7222-9cf6-157b1a14988f">
    <mxGraphModel dx="2284" dy="784" grid="1" gridSize="10" guides="1" tooltips="1" connect="1" arrows="1" fold="1" page="1" pageScale="1" pageWidth="850" pageHeight="1100" background="none" math="0" shadow="0">
      <root>
        <mxCell id="0" />
        <mxCell id="1" parent="0" />
        <mxCell id="MILoNDDz1RNzL-iQ5fwg-2" value="" style="whiteSpace=wrap;html=1;verticalAlign=top;" vertex="1" parent="1">
          <mxGeometry x="-50" y="280" width="630" height="360" as="geometry" />
        </mxCell>
        <mxCell id="MILoNDDz1RNzL-iQ5fwg-3" value="" style="edgeStyle=orthogonalEdgeStyle;rounded=0;orthogonalLoop=1;jettySize=auto;html=1;entryX=0;entryY=0.5;entryDx=0;entryDy=0;" edge="1" parent="1" source="MILoNDDz1RNzL-iQ5fwg-1" target="MILoNDDz1RNzL-iQ5fwg-4">
          <mxGeometry relative="1" as="geometry" />
        </mxCell>
        <mxCell id="MILoNDDz1RNzL-iQ5fwg-1" value="사용자" style="shape=umlActor;verticalLabelPosition=bottom;verticalAlign=top;html=1;" vertex="1" parent="1">
          <mxGeometry x="-220" y="365" width="30" height="60" as="geometry" />
        </mxCell>
        <mxCell id="MILoNDDz1RNzL-iQ5fwg-4" value="로그인" style="ellipse;whiteSpace=wrap;html=1;fontFamily=Verdana;" vertex="1" parent="1">
          <mxGeometry x="100" y="380" width="140" height="70" as="geometry" />
        </mxCell>
        <mxCell id="MILoNDDz1RNzL-iQ5fwg-6" value="ID/PW 확인" style="ellipse;whiteSpace=wrap;html=1;" vertex="1" parent="1">
          <mxGeometry x="350" y="360" width="140" height="70" as="geometry" />
        </mxCell>
        <mxCell id="MILoNDDz1RNzL-iQ5fwg-7" value="Use" style="endArrow=open;endSize=12;dashed=1;html=1;rounded=0;exitX=0.986;exitY=0.4;exitDx=0;exitDy=0;exitPerimeter=0;" edge="1" parent="1" source="MILoNDDz1RNzL-iQ5fwg-4" target="MILoNDDz1RNzL-iQ5fwg-6">
          <mxGeometry width="160" relative="1" as="geometry">
            <mxPoint x="475" y="450" as="sourcePoint" />
            <mxPoint x="230" y="570" as="targetPoint" />
          </mxGeometry>
        </mxCell>
      </root>
    </mxGraphModel>
  </diagram>
</mxfile>
